# xmcd
#
# Track frame offsets: 
#        150
#        16013
#        31032
#        51578
#        71699
#        92120
#        111830
#        128772
#        147193
#        168481
#        188077
#        208786
#        240309
#
# Disc length: 4440 seconds
#
# Revision: 13
# Processed by: cddbd v1.5.2PL0 Copyright (c) Steve Scherf et al.
# Submitted via: ExactAudioCopy v1.0b2
#
DISCID=ae11560d
DTITLE=Ilse DeLange - Clean Up
DYEAR=2003
DGENRE=Folk/Rock
TTITLE0=All Alone
TTITLE1=Thank You
TTITLE2=Déjà Vu
TTITLE3=New Beginning
TTITLE4=Heavenless
TTITLE5=Follow
TTITLE6=Clean Up
TTITLE7=Machine People
TTITLE8=Not Waiting For You
TTITLE9=No Reason To Be Shy
TTITLE10=Nobody Really Knows
TTITLE11=Here I Am
TTITLE12=data track
EXTD=YEAR: 2003
EXTT0=
EXTT1=
EXTT2=
EXTT3=
EXTT4=
EXTT5=
EXTT6=
EXTT7=
EXTT8=
EXTT9=
EXTT10=
EXTT11=
EXTT12=
PLAYORDER=
